<?xml version="1.0" encoding="UTF-8"?>
<svg id="_レイヤー_1" data-name="レイヤー 1" xmlns="http://www.w3.org/2000/svg" viewBox="0 0 450.7886 66.8516">
  <defs>
    <style>
      .cls-1 {
        stroke-width: 0px;
      }
    </style>
  </defs>
  <path class="cls-1" d="m95.7593,48.3838c-2.3037-2.6641-3.4561-6.5635-3.4561-11.7002v-19.584c0-4.9912,1.2119-8.8555,3.6362-11.5918,2.4233-2.7363,5.627-4.1035,9.6118-4.1035,3.5034,0,6.3599,1.1768,8.5679,3.5273l-2.8799,5.4004c-1.1045-2.1602-3.0005-3.2402-5.688-3.2402-2.1128,0-3.8643.8174-5.2559,2.4482-1.3926,1.6318-2.0879,4.1523-2.0879,7.5596v19.584c0,6.5771,2.4478,9.8643,7.3438,9.8643,1.4399,0,2.6157-.2988,3.5283-.8994.9111-.6006,1.6792-1.4766,2.3037-2.6289l2.9521,5.5439c-1.2007,1.3936-2.5684,2.377-4.104,2.9521-1.5366.5762-3.0962.8643-4.6802.8643-4.2241,0-7.4878-1.332-9.792-3.9961Z"/>
  <path class="cls-1" d="m121.6792,48.8877c-1.8247-2.3271-2.7363-5.2197-2.7363-8.6758v-14.5439c0-3.3125.8877-6.167,2.6641-8.5684,1.7754-2.3994,4.3203-3.5996,7.6323-3.5996s5.8555,1.1768,7.6318,3.5283c1.7754,2.3516,2.6641,5.2324,2.6641,8.6396v14.5439c0,3.7441-.9722,6.708-2.916,8.8916-1.9443,2.1855-4.4043,3.2764-7.3799,3.2764-3.2168,0-5.7368-1.1631-7.5601-3.4922Zm10.9438-3.8154c.8638-1.1279,1.2959-2.748,1.2959-4.8604v-14.5439c0-1.8232-.3848-3.3721-1.1519-4.6436-.7686-1.2715-1.9438-1.9082-3.5278-1.9082-1.4888,0-2.6406.5879-3.4561,1.7637-.8169,1.1768-1.2241,2.7725-1.2241,4.7881v14.5439c0,1.9688.396,3.5527,1.188,4.752.792,1.2002,1.9551,1.7998,3.4922,1.7998,1.3916,0,2.5195-.5635,3.3838-1.6914Z"/>
  <path class="cls-1" d="m175.0308,16.5244c1.2964,1.8242,1.9443,4.1523,1.9443,6.9834v28.1523h-5.9761v-27.2881c0-1.3438-.2642-2.5078-.792-3.4922-.5288-.9834-1.3442-1.4756-2.4482-1.4756-.6724,0-1.3203.3125-1.9438.9355-.6245.624-1.3208,1.7285-2.0879,3.3125v28.0078h-5.7603v-27.2881c0-1.3438-.2642-2.5078-.792-3.4922-.5283-.9834-1.3442-1.4756-2.4478-1.4756-.6729,0-1.3086.2998-1.9082.8994-.6006.6006-1.2847,1.6689-2.0518,3.2041v28.1523h-5.7603V14.2197h3.5283l1.9438,3.6006c1.9194-2.6875,3.9351-4.0322,6.0479-4.0322,1.584,0,2.916.4316,3.9961,1.2959s1.8833,2.041,2.4121,3.5283c2.0161-3.2158,4.2231-4.8242,6.624-4.8242,2.3511,0,4.1758.9121,5.4717,2.7363Z"/>
  <path class="cls-1" d="m185.4702,10.5479l-4.4639-8.4238h5.7603l1.584,2.9521-2.8804,5.4717Zm-2.9517,41.1123h5.9038V14.2197h-5.9038v37.4404Z"/>
  <path class="cls-1" d="m212.7222,16.2363c1.2715,1.6318,1.9082,4.0566,1.9082,7.2715v28.1523h-5.7603v-26.3525c0-4.0312-1.1768-6.0479-3.5278-6.0479-1.0083,0-1.9326.4209-2.772,1.2598-.8403.8408-1.8125,2.3408-2.916,4.5v26.6406h-5.7603V14.2197h3.3843l2.376,4.4639v.0723c1.1035-1.6797,2.2793-2.9268,3.5278-3.7441,1.2476-.8154,2.7358-1.2236,4.4639-1.2236,2.1118,0,3.8037.8164,5.0762,2.4482Z"/>
  <path class="cls-1" d="m237.6704,14.2197h2.8799v38.0879c0,4.5596-1.0566,8.124-3.168,10.6924-2.1128,2.5674-4.896,3.8516-8.3521,3.8516-1.8721,0-3.5767-.3721-5.1123-1.1152-1.5366-.7451-3-1.7891-4.3916-3.1328l2.6641-4.9678c2.1113,2.9277,4.3916,4.3926,6.8398,4.3926,2.1113,0,3.6001-.7568,4.4639-2.2686.8643-1.5117,1.2959-3.9727,1.2959-7.3799v-3.5283c-.8164,1.1523-1.6807,2.0283-2.5918,2.6279-.9126.6016-1.9688.9004-3.168.9004-1.728,0-3.312-.4795-4.752-1.4395s-2.5811-2.3047-3.4199-4.0322c-.8403-1.7285-1.2603-3.6719-1.2603-5.832v-15.9844c0-3.3115.8281-6.0234,2.4839-8.1357,1.6562-2.1113,3.8037-3.168,6.4443-3.168,1.584,0,2.9033.4082,3.96,1.2236,1.0552.8174,2.0161,1.9922,2.8799,3.5283l2.3042-4.3203Zm-4.896,32.4727c.7197-.3359,1.3916-1.0088,2.0156-2.0166v-21.7441c-.8164-1.3916-1.5728-2.3994-2.2681-3.0234-.6963-.623-1.4521-.9365-2.2676-.9365-1.3931,0-2.4966.5762-3.312,1.7285-.8169,1.1514-1.2241,2.7842-1.2241,4.8955v14.9766c0,2.0156.4072,3.624,1.2241,4.8232.8154,1.2012,1.9189,1.8008,3.312,1.8008.9595,0,1.7998-.168,2.52-.5039Z"/>
  <path class="cls-1" d="m263.481,50.4004c-1.8481-1.2715-3.4917-3.252-4.9321-5.9404l3.5283-6.7676c1.1035,3.2646,2.376,5.5322,3.8159,6.8037,1.4399,1.2725,3.0713,1.9082,4.896,1.9082,1.3916,0,2.5674-.3965,3.5278-1.1885.96-.792,1.4404-1.9082,1.4404-3.3477,0-1.7754-.8169-3.8887-2.4482-6.3359l-7.0562-10.0801-4.248-6.0479c-1.4883-2.208-2.2319-4.584-2.2319-7.1279,0-1.9199.4434-3.708,1.332-5.3643.8877-1.6562,2.1836-2.9883,3.8882-3.9961,1.7031-1.0078,3.708-1.5117,6.0117-1.5117,3.7915,0,6.6958,1.248,8.7124,3.7441l-3.3838,6.4795c-1.0566-2.8799-2.9526-4.3203-5.6885-4.3203-1.4399,0-2.5684.4209-3.3838,1.2607-.8169.8398-1.2241,1.9072-1.2241,3.2031,0,1.3936.4556,2.833,1.3682,4.3203,1.3916,2.3037,4.1758,6.3125,8.3521,12.0244,1.4873,1.9688,2.5674,3.4561,3.2393,4.4639,1.8721,2.9287,2.8086,5.8799,2.8086,8.8555,0,3.1211-1.0078,5.7129-3.0244,7.7764-2.0156,2.0645-4.8003,3.0957-8.3516,3.0957-2.7847,0-5.1011-.6357-6.9482-1.9072Z"/>
  <path class="cls-1" d="m288.4282,48.8877c-1.8242-2.3271-2.7354-5.2197-2.7354-8.6758v-14.5439c0-3.3125.8877-6.167,2.6641-8.5684,1.7744-2.3994,4.3193-3.5996,7.6318-3.5996s5.8555,1.1768,7.6318,3.5283c1.7754,2.3516,2.6641,5.2324,2.6641,8.6396v14.5439c0,3.7441-.9717,6.708-2.916,8.8916-1.9443,2.1855-4.4043,3.2764-7.3799,3.2764-3.2168,0-5.7363-1.1631-7.5605-3.4922Zm10.9443-3.8154c.8643-1.1279,1.2959-2.748,1.2959-4.8604v-14.5439c0-1.8232-.3848-3.3721-1.1523-4.6436s-1.9434-1.9082-3.5273-1.9082c-1.4883,0-2.6406.5879-3.4561,1.7637-.8174,1.1768-1.2246,2.7725-1.2246,4.7881v14.5439c0,1.9688.3965,3.5527,1.1885,4.752.792,1.2002,1.9551,1.7998,3.4922,1.7998,1.3916,0,2.5195-.5635,3.3838-1.6914Z"/>
  <path class="cls-1" d="m314.4927,48.8877c-1.8242-2.3271-2.7354-5.2197-2.7354-8.6758v-14.5439c0-3.3125.8877-6.167,2.6641-8.5684,1.7744-2.3994,4.3193-3.5996,7.6318-3.5996s5.8555,1.1768,7.6318,3.5283c1.7754,2.3516,2.6641,5.2324,2.6641,8.6396v14.5439c0,3.7441-.9717,6.708-2.916,8.8916-1.9443,2.1855-4.4043,3.2764-7.3799,3.2764-3.2168,0-5.7363-1.1631-7.5605-3.4922Zm10.9443-3.8154c.8643-1.1279,1.2959-2.748,1.2959-4.8604v-14.5439c0-1.8232-.3848-3.3721-1.1523-4.6436s-1.9434-1.9082-3.5273-1.9082c-1.4883,0-2.6406.5879-3.4561,1.7637-.8174,1.1768-1.2246,2.7725-1.2246,4.7881v14.5439c0,1.9688.3965,3.5527,1.1885,4.752.792,1.2002,1.9551,1.7998,3.4922,1.7998,1.3916,0,2.5195-.5635,3.3838-1.6914Z"/>
  <path class="cls-1" d="m356.6499,16.2363c1.2705,1.6318,1.9072,4.0566,1.9072,7.2715v28.1523h-5.7598v-26.3525c0-4.0312-1.1768-6.0479-3.5283-6.0479-1.0078,0-1.9326.4209-2.7715,1.2598-.8408.8408-1.8125,2.3408-2.916,4.5v26.6406h-5.7598V14.2197h3.3838l2.376,4.4639v.0723c1.1035-1.6797,2.2793-2.9268,3.5283-3.7441,1.2471-.8154,2.7354-1.2236,4.4639-1.2236,2.1113,0,3.8037.8164,5.0762,2.4482Z"/>
</svg>