<!--?xml version="1.0" encoding="utf-8"?-->
<!-- Generator: Adobe Illustrator 15.1.0, SVG Export Plug-In . SVG Version: 6.00 Build 0)  -->

<svg version="1.1" id="_x32_" xmlns="http://www.w3.org/2000/svg" xmlns:xlink="http://www.w3.org/1999/xlink" x="0px" y="0px" width="512px" height="512px" viewBox="0 0 512 512" style="width: 256px; height: 256px; opacity: 1;" xml:space="preserve">
<style type="text/css">

	.st0{fill:#4B4B4B;}

</style>
<g>
	<polygon class="st0" points="256,0 24,69.344 24,109.344 40,109.344 40,129.344 472,129.344 472,109.344 488,109.344 488,69.344 	
		" style="fill: rgb(75, 75, 75);"></polygon>
	<polygon class="st0" points="472,432 40,432 40,464 24,464 24,512 488,512 488,464 472,464 	" style="fill: rgb(75, 75, 75);"></polygon>
	<polygon class="st0" points="384,397.344 384,413.344 448,413.344 448,397.344 440,397.344 440,169.344 448,169.344 448,153.344 
		384,153.344 384,169.344 392,169.344 392,397.344 	" style="fill: rgb(75, 75, 75);"></polygon>
	<polygon class="st0" points="277.344,397.344 277.344,413.344 341.344,413.344 341.344,397.344 333.344,397.344 333.344,169.344 
		341.344,169.344 341.344,153.344 277.344,153.344 277.344,169.344 285.344,169.344 285.344,397.344 	" style="fill: rgb(75, 75, 75);"></polygon>
	<polygon class="st0" points="170.656,397.344 170.656,413.344 234.656,413.344 234.656,397.344 226.656,397.344 226.656,169.344 
		234.656,169.344 234.656,153.344 170.656,153.344 170.656,169.344 178.656,169.344 178.656,397.344 	" style="fill: rgb(75, 75, 75);"></polygon>
	<polygon class="st0" points="64,397.344 64,413.344 128,413.344 128,397.344 120,397.344 120,169.344 128,169.344 128,153.344 
		64,153.344 64,169.344 72,169.344 72,397.344 	" style="fill: rgb(75, 75, 75);"></polygon>
</g>
</svg>
