<?xml version="1.0" encoding="UTF-8"?>
<svg id="_レイヤー_1" data-name="レイヤー 1" xmlns="http://www.w3.org/2000/svg" viewBox="0 0 450.7886 60.4795">
  <defs>
    <style>
      .cls-1 {
        opacity: .97;
      }

      .cls-2 {
        fill: #1a1a1a;
        stroke-width: 0px;
      }
    </style>
  </defs>
  <g class="cls-1">
    <path class="cls-2" d="m11.52,41.832l1.584-2.9521h5.4004l-7.2002,13.5361H2.8081l-2.8081-5.1836h6.1924v-21.8882H1.584v-5.1841h4.6084v-11.0879H.792V3.8882h16.1284v5.1841h-5.4004v11.0879h4.6084v5.1841h-4.6084v16.4878Zm2.4482,13.1768h6.3359v-26.9287h5.1841v32.3994h-8.6401l-2.8799-5.4707Zm3.96-29.1606l7.6318-14.3281h-7.6318v-5.4717h11.2319V1.584h5.6162v4.4644h11.4478v5.4717h-14.3281l-4.752,9h9.7202l-3.312-6.1919h6.4082l6.1196,11.52h-28.1519Zm15.48,32.1841h-5.1841v-29.0879h5.1841v29.0879Zm9.2881-3.0234v-5.7607h3.7441v11.2314h-9.8643V28.0801h5.1841v26.9287h.936Z"/>
    <path class="cls-2" d="m84.4556,30.2402l12.6719,23.9033h6.3359v6.3359h-9.8643l-12.168-22.8955-12.168,22.8955h-6.8398l-3.3838-6.3359h6.6958l12.6719-23.8315v-7.7759h-18.3599v-5.9761h18.3599V1.584h6.0483v14.9761h18.3594v5.9761h-18.3594v7.7041Z"/>
    <path class="cls-2" d="m126.2153,30.8882l10.2959,19.4399h21.4561v5.9043h-24.8398l-13.4648-25.3442h6.5527Zm11.5918,6.8394l-11.8086-22.1035h6.5527l8.7119,16.3442h13.0322v5.7593h-16.4883Zm5.7598-16.7754l-8.9277-16.8481h6.5518l5.9043,11.0884h6.3359v5.7598h-9.8643Z"/>
    <path class="cls-2" d="m208.0063,32.832l-9.4316,17.6396h12.7441v5.4727h-29.376v-5.4727h10.5117l9.9355-18.7192v-8.6401h-18.2158v-5.4722h23.832v15.1919Z"/>
    <path class="cls-2" d="m270.5024,34.4883h-35.4961v-6.0479h38.7354l-3.2393,6.0479Z"/>
    <path class="cls-2" d="m290.6616,6.6963h23.9766l-3.0244,5.7598h-20.9521v-5.7598Zm0,14.2559h23.4004l-3.0244,5.7603h-20.376v-5.7603Zm20.6641,29.376l13.4639-25.3438v-10.8003h5.9043v12.2402l-15.8398,29.8081h-17.7119l-3.168-5.9043h17.3516Zm21.6719-35.2798l-7.9922-15.0483h3.8887l6.0479,11.376-1.9443,3.6724Zm-1.9434-15.0483h3.8877l4.0322,7.6323-1.9443,3.6719-5.9756-11.3042Z"/>
    <path class="cls-2" d="m388.2212,12.0962v44.1362h-14.04l-3.2402-6.0479h11.2324V18h-7.2715l-20.3047,38.2324h-3.6719l-3.0957-5.9043h3.168l17.208-32.3281h-17.5684v-5.9038h18.0723v-7.9922h6.1924v7.9922h13.3193Z"/>
    <path class="cls-2" d="m403.4849,50.3281h3.0244l13.4639-25.3438h6.6963l-16.6328,31.248h-3.4561l-3.0957-5.9043Zm31.6084-4.752l9-16.9199h6.6953l-14.6875,27.5762h-6.9121V4.104h5.9043v41.4722Z"/>
  </g>
</svg>